<svg xmlns="http://www.w3.org/2000/svg" xmlns:xlink="http://www.w3.org/2000/xlink" display="none">
    <defs>
        <g id="img-cloud-drizzle">
            <g xmlns="http://www.w3.org/2000/svg" fill="none" fill-rule="evenodd" stroke="#333333"
               stroke-linecap="round" stroke-linejoin="round" stroke-width="3">
                <path d="M14,18 L14,20" transform="translate(1 2)"/>
                <path d="M14,11 L14,13" transform="translate(1 2)"/>
                <path d="M9,20 L9,22" transform="translate(1 2)"/>
                <path d="M9,13 L9,15" transform="translate(1 2)"/>
                <path d="M20,15.58 C22.1666971,14.6310615 23.3719893,12.2936524 22.8885932,9.97818513 C22.4051971,7.66271783 20.3653864,6.00278331 18,6 L16.74,6 C15.8695943,2.62945307 12.9194928,0.208656038 9.44387933,0.0129425627 C5.96826587,-0.182770913 2.76504323,1.89152946 1.52174557,5.14305273 C0.2784479,8.394576 1.28050125,12.0768642 4,14.25"
                      transform="translate(1 2)"/>
            </g>
        </g>
        <g id="img-icon-scheduled">
            <g xmlns="http://www.w3.org/2000/svg" fill="none" fill-rule="evenodd">
                <path fill="transparent" d="M0 0H1366V768H0z" transform="translate(-925 -250)"/>
                <path d="M0 0H24V24H0z"/>
                <g stroke="#000000" stroke-linecap="round" stroke-linejoin="round" stroke-width="2"
                   transform="translate(2 2)">
                    <circle cx="10" cy="10" r="10"/>
                    <path d="M10 4L10 10 13 13" opacity=".3"/>
                </g>
            </g>
        </g>
        <g id="img-icon-sun-2">
            <g xmlns="http://www.w3.org/2000/svg" fill="none"
               fill-rule="evenodd">
                <path fill="transparent" d="M0 0H1366V768H0z" transform="translate(-1140 -250)"/>
                <path d="M0 0H24V24H0z"/>
                <g stroke-linecap="round" stroke-linejoin="round" stroke-width="2" transform="translate(1 1)">
                    <circle cx="11" cy="11" r="5" stroke="#F5A623"/>
                    <path stroke="#FFD93E" d="M11,0 L11,2"/>
                    <path stroke="#FFD93E" d="M11,20 L11,22"/>
                    <path stroke="#FFD93E" d="M3.22,3.22 L4.64,4.64"/>
                    <path stroke="#FFD93E" d="M17.36,17.36 L18.78,18.78"/>
                    <path stroke="#FFD93E" d="M0,11 L2,11"/>
                    <path stroke="#FFD93E" d="M20,11 L22,11"/>
                    <path stroke="#FFD93E" d="M3.22,18.78 L4.64,17.36"/>
                    <path stroke="#FFD93E" d="M17.36,4.64 L18.78,3.22"/>
                </g>
            </g>
        </g>
        <g id="img-icon-sun">
            <g xmlns="http://www.w3.org/2000/svg" fill="none" fill-rule="evenodd">
                <path fill="transparent" d="M0 0H1366V768H0z" transform="translate(-464 -404)"/>
                <path d="M0 0H24V24H0z"/>
                <g stroke="#333333" stroke-linecap="round" stroke-linejoin="round" stroke-width="2"
                   transform="translate(1 1)">
                    <circle cx="11" cy="11" r="5" stroke-opacity=".4"/>
                    <path stroke-opacity=".1" d="M11,0 L11,2"/>
                    <path stroke-opacity=".1" d="M11,20 L11,22"/>
                    <path stroke-opacity=".1" d="M3.22,3.22 L4.64,4.64"/>
                    <path stroke-opacity=".1" d="M17.36,17.36 L18.78,18.78"/>
                    <path stroke-opacity=".1" d="M0,11 L2,11"/>
                    <path stroke-opacity=".1" d="M20,11 L22,11"/>
                    <path stroke-opacity=".1" d="M3.22,18.78 L4.64,17.36"/>
                    <path stroke-opacity=".1" d="M17.36,4.64 L18.78,3.22"/>
                </g>
            </g>
        </g>
        <g id="img-icon-temperature-2">
            <g xmlns="http://www.w3.org/2000/svg" fill="none" fill-rule="evenodd">
                <path fill="transparent" d="M0 0H1366V768H0z" transform="translate(-925 -365)"/>
                <path d="M0 0H24V24H0z"/>
                <g transform="translate(7 1)">
                    <path stroke="#F5A623" stroke-linecap="round" stroke-linejoin="round" stroke-width="2"
                          d="M7,13.76 L7,2.5 C7,1.11928813 5.88071187,0 4.5,0 C3.11928813,-2.22044605e-16 2,1.11928813 2,2.5 L2,13.76 C0.351885607,14.8611927 -0.381613186,16.911099 0.19375696,18.8079004 C0.769127106,20.7047019 2.51785305,22.0016574 4.5,22.0016574 C6.48214695,22.0016574 8.23087289,20.7047019 8.80624304,18.8079004 C9.38161319,16.911099 8.64811439,14.8611927 7,13.76 Z"/>
                    <circle cx="4.5" cy="17.5" r="3.5" fill="#FFD93E" fill-rule="nonzero"/>
                </g>
            </g>
        </g>
        <g id="img-icon-temperature">
            <g xmlns="http://www.w3.org/2000/svg" fill="none" fill-rule="evenodd">
                <path fill="transparent" d="M0 0H1366V768H0z" transform="translate(-464 -269)"/>
                <path d="M0 0H24V24H0z"/>
                <path stroke="#333333" stroke-linecap="round" stroke-linejoin="round" stroke-opacity=".4"
                      stroke-width="2"
                      d="M14.0003489,14.76 L14.0003489,3.5 C14.0003489,2.11928813 12.8810608,1 11.5003489,1 C10.119637,1 9.00034891,2.11928813 9.00034891,3.5 L9.00034891,14.76 C7.35223452,15.8611927 6.61873572,17.911099 7.19410587,19.8079004 C7.76947602,21.7047019 9.51820196,23.0016574 11.5003489,23.0016574 C13.4824959,23.0016574 15.2312218,21.7047019 15.806592,19.8079004 C16.3819621,17.911099 15.6484633,15.8611927 14.0003489,14.76 Z"/>
                <circle cx="11.5" cy="18.5" r="3.5" fill="#333333" fill-opacity=".1" fill-rule="nonzero"/>
            </g>
        </g>
    </defs>
</svg>