<?xml version="1.0" encoding="UTF-8"?><svg width="74" height="64" viewBox="0 0 74 64" xmlns="http://www.w3.org/2000/svg" xmlns:xlink="http://www.w3.org/1999/xlink"><svg width="9" height="14" viewBox="0 0 9 14" id="arrow-down" x="16" y="50" xmlns="http://www.w3.org/2000/svg"><defs><path d="M7.5 11.727c-.386 0-.623-.155-.935-.487L1.178 5.494a.917.917 0 010-1.238.785.785 0 011.16 0L7.5 9.763l5.162-5.507a.785.785 0 011.16 0c.32.342.32.896 0 1.238l-5.368 5.725c-.318.34-.568.508-.954.508z" id="aa"/></defs><g fill="none" fill-rule="evenodd"><path fill="#none" d="M-1283-608H83v829h-1366z"/><g transform="matrix(-1 0 0 1 12 -1)"><path d="M0 0h15v16H0z"/><mask id="ab" fill="#fff"><use xlink:href="#aa"/></mask><g mask="url(#ab)" fill="#333"><path d="M-76.875-57h169V73h-169z"/></g></g></g></svg><svg width="26" height="26" viewBox="0 0 26 26" id="cloud-drizzle" xmlns="http://www.w3.org/2000/svg"><g stroke="#333" stroke-linecap="round" stroke-linejoin="round" stroke-width="3" fill="none" fill-rule="evenodd"><path d="M15 20v2M15 13v2M10 22v2M10 15v2M21 17.58A5 5 0 0019 8h-1.26A8 8 0 105 16.25"/></g></svg><svg width="16" height="14" viewBox="0 0 16 14" id="icon_list_m" y="50" xmlns="http://www.w3.org/2000/svg"><defs><path d="M0 3.326a.995.995 0 011-.993h14c.552 0 1 .44 1 .993v.681A.995.995 0 0115 5H1c-.552 0-1-.44-1-.993v-.68zM0 8.66a.995.995 0 011-.993h14c.552 0 1 .44 1 .993v.68a.995.995 0 01-1 .993H1c-.552 0-1-.44-1-.993v-.68zm0 5.333A.995.995 0 011 13h14c.552 0 1 .44 1 .993v.68a.995.995 0 01-1 .994H1c-.552 0-1-.44-1-.993v-.681z" id="ca"/></defs><use fill="#333" xlink:href="#ca" transform="translate(0 -2)" fill-rule="evenodd"/></svg><svg width="24" height="24" viewBox="0 0 24 24" id="icon_scheduled" x="26" xmlns="http://www.w3.org/2000/svg"><g fill="none" fill-rule="evenodd"><path fill="transparent" d="M-925-250H441v768H-925z"/><path d="M0 0h24v24H0z"/><g transform="translate(2 2)" stroke="#000" stroke-linecap="round" stroke-linejoin="round" stroke-width="2"><circle cx="10" cy="10" r="10"/><path opacity=".3" d="M10 4v6l3 3"/></g></g></svg><svg width="24" height="24" viewBox="0 0 24 24" id="icon_sun" y="26" xmlns="http://www.w3.org/2000/svg"><g fill="none" fill-rule="evenodd"><path fill="transparent" d="M-464-404H902v768H-464z"/><path d="M0 0h24v24H0z"/><g transform="translate(1 1)" stroke="#333" stroke-linecap="round" stroke-linejoin="round" stroke-width="2"><circle stroke-opacity=".4" cx="11" cy="11" r="5"/><path d="M11 0v2M11 20v2M3.22 3.22l1.42 1.42M17.36 17.36l1.42 1.42M0 11h2M20 11h2M3.22 18.78l1.42-1.42M17.36 4.64l1.42-1.42" stroke-opacity=".1"/></g></g></svg><svg width="24" height="24" viewBox="0 0 24 24" id="icon_sun_2" x="24" y="26" xmlns="http://www.w3.org/2000/svg"><g fill="none" fill-rule="evenodd"><path fill="transparent" d="M-1140-250H226v768h-1366z"/><path d="M0 0h24v24H0z"/><g transform="translate(1 1)" stroke-linecap="round" stroke-linejoin="round" stroke-width="2"><circle stroke="#F5A623" cx="11" cy="11" r="5"/><path d="M11 0v2M11 20v2M3.22 3.22l1.42 1.42M17.36 17.36l1.42 1.42M0 11h2M20 11h2M3.22 18.78l1.42-1.42M17.36 4.64l1.42-1.42" stroke="#FFD93E"/></g></g></svg><svg width="24" height="24" viewBox="0 0 24 24" id="icon_temperature" x="50" xmlns="http://www.w3.org/2000/svg"><g fill="none" fill-rule="evenodd"><path fill="#transparent" d="M-464-269H902v768H-464z"/><g><path d="M0 0h24v24H0z"/><path d="M14 14.76V3.5a2.5 2.5 0 10-5 0v11.26a4.5 4.5 0 105 0z" stroke-opacity=".4" stroke="#333" stroke-width="2" stroke-linecap="round" stroke-linejoin="round"/><circle fill-opacity=".1" fill="#333" fill-rule="nonzero" cx="11.5" cy="18.5" r="3.5"/></g></g></svg><svg width="24" height="24" viewBox="0 0 24 24" id="icon_temperature_2" x="50" y="24" xmlns="http://www.w3.org/2000/svg"><g fill="none" fill-rule="evenodd"><path fill="transparent" d="M-925-365H441v768H-925z"/><path d="M0 0h24v24H0z"/><g transform="translate(7 1)"><path d="M7 13.76V2.5a2.5 2.5 0 00-5 0v11.26a4.5 4.5 0 105 0z" stroke="#F5A623" stroke-width="2" stroke-linecap="round" stroke-linejoin="round"/><circle fill="#FFD93E" fill-rule="nonzero" cx="4.5" cy="17.5" r="3.5"/></g></g></svg></svg>